# xmcd
#
# Track frame offsets:
#	150
#	17420
#	33887
#	52252
#	69202
#	85345
#	107480
#	126680
#	142695
#	160177
#	180622
#	195267
#	213070
#	230765
#	246172
#	267570
#
# Disc length: 3817 seconds
#
# Revision: 1
# Processed by: cddbd v1.5PL3 Copyright (c) Steve Scherf et al.
# Submitted via: CDex 1.50Beta5
#
DISCID=d60ee710
DTITLE=Various Artist - オムニバス デュエット ヒット大全集
DYEAR=1900
DGENRE=
TTITLE0=木の実ナナ・五木ひろし/居酒屋
TTITLE1=伊藤咲子・ハッピー&ブルー/今夜は離さない
TTITLE2=日野美歌・五木ひろし/二人の大阪
TTITLE3=三浦弘とハニーシックス/今夜はオールナイトで
TTITLE4=伊藤咲子・ハッピー&ブルー/別れの夜明け
TTITLE5=阿部三登里・千昌夫/めおとの旅
TTITLE6=津山洋子・大木英夫/新宿そだち
TTITLE7=日野美歌・五木ひろし/北空港
TTITLE8=日野美歌・葵司朗/男と女のラブゲーム
TTITLE9=幾三ちゃんとHITOMIちゃん/ドダバ富士
TTITLE10=森美樹・松平直樹とブル−ロマン/別れても好きな人
TTITLE11=マリエ・五木ひろし/デュオしのび逢い
TTITLE12=森美樹・松平直樹とブル−ロマン/東京ナイトクラブ
TTITLE13=長沢薫・増位山大志郎/夜のめぐり逢い
TTITLE14=都はるみ・五木ひろし/ふたりのラブソング
TTITLE15=二宮善子・大木英夫/あなたまかせの夜だから
EXTD=
EXTT0=
EXTT1=
EXTT2=
EXTT3=
EXTT4=
EXTT5=
EXTT6=
EXTT7=
EXTT8=
EXTT9=
EXTT10=
EXTT11=
EXTT12=
EXTT13=
EXTT14=
EXTT15=
PLAYORDER=
